<?xml version="1.0" encoding="UTF-8"?>
<svg version="1.1" xmlns="http://www.w3.org/2000/svg" width="513" height="463">
<path d="M0 0 C169.29 0 338.58 0 513 0 C513 152.79 513 305.58 513 463 C343.71 463 174.42 463 0 463 C0 310.21 0 157.42 0 0 Z " fill="#1F252B" transform="translate(0,0)"/>
<path d="M0 0 C1.875 0.9375 1.875 0.9375 3.9375 2.625 C6.70254638 4.80173864 9.15902232 6.05412924 12.3125 7.5625 C17.65775635 10.37804947 19.67953377 13.27917586 22.41796875 18.54296875 C25.36294506 23.38283598 30.40002331 25.98310332 35.0625 29 C38.81250351 32.17694667 39.87277306 36.67569675 41.45703125 41.1875 C44.20346076 48.7811651 48.25839254 55.90270631 51.97607422 63.05615234 C52.51192139 64.10150146 52.51192139 64.10150146 53.05859375 65.16796875 C53.3827124 65.79469482 53.70683105 66.4214209 54.04077148 67.06713867 C55.70954195 70.80856406 55.99106855 74.11629029 55.9375 78.1875 C55.92847656 79.07953125 55.91945313 79.9715625 55.91015625 80.890625 C55.89275391 81.90382812 55.89275391 81.90382812 55.875 82.9375 C57.195 82.6075 58.515 82.2775 59.875 81.9375 C64.95346972 59.49295994 65.79791873 38.27332607 59.875 15.9375 C59.53970932 14.60465753 59.20586612 13.27144771 58.875 11.9375 C75.11736448 18.05781125 88.51962925 30.09415362 100.875 41.9375 C101.46571289 42.49566406 102.05642578 43.05382812 102.66503906 43.62890625 C112.20204177 52.673901 120.32401725 62.18757874 127.875 72.9375 C128.47828125 73.76765625 129.0815625 74.5978125 129.703125 75.453125 C133.81769121 81.30014014 136.86778565 87.68404548 139.97509766 94.10253906 C141.44029704 97.09017839 142.98033149 100.03977804 144.5 103 C148.63863579 111.28657189 152.15826948 119.6516218 154.31030273 128.67675781 C154.70639965 130.26251545 155.13745939 131.83975429 155.59399414 133.40917969 C165.48529738 167.41493529 165.25762562 209.19661716 152.77636719 242.48193359 C151.73954684 245.30651081 150.91714727 248.16065438 150.125 251.0625 C143.80414377 271.87688204 131.65176271 293.89651634 114.875 307.9375 C114.215 307.9375 113.555 307.9375 112.875 307.9375 C111.68608331 306.27301663 110.57634019 304.55190208 109.5 302.8125 C96.73312309 283.27042126 78.65354065 266.83296026 56.875 257.9375 C55.875 256.9375 55.875 256.9375 55.625 253.4375 C54.83808661 246.78450497 51.58984109 241.20738895 46.6875 236.6875 C36.02347681 228.39833423 21.56313504 223.58428513 8.16796875 223.078125 C5.875 222.9375 5.875 222.9375 3.875 221.9375 C3.89594727 223.02579102 3.91689453 224.11408203 3.93847656 225.23535156 C4.01165517 229.32798764 4.05707844 233.42056769 4.09472656 237.51367188 C4.11466673 239.27483897 4.14182911 241.0359414 4.17675781 242.796875 C4.4747461 258.22215094 3.02710716 270.12873941 -7.8671875 281.8046875 C-15.88460271 289.55596445 -24.78096931 292.41035235 -35.75 292.5 C-48.11674164 292.2545422 -55.69611014 288.61518411 -64.48046875 279.8828125 C-71.95163506 271.56189759 -74.46215199 261.86629913 -74.3203125 250.94140625 C-74.3174826 250.10786118 -74.31465271 249.2743161 -74.31173706 248.41551208 C-74.30062289 245.7768564 -74.27553515 243.13855152 -74.25 240.5 C-74.23995885 238.70117681 -74.23083499 236.90234825 -74.22265625 235.10351562 C-74.20071235 230.71471045 -74.16624387 226.32616452 -74.125 221.9375 C-76.63985065 222.3970003 -79.15404163 222.85971437 -81.66796875 223.32421875 C-82.369823 223.45211792 -83.07167725 223.58001709 -83.7947998 223.71179199 C-98.55639277 226.44952037 -113.04549251 230.07054081 -122.125 242.9375 C-124.42159368 246.61204989 -125.11860213 248.44880083 -125.17578125 252.81640625 C-125.48632518 255.45061319 -125.72109612 256.5673384 -127.69726562 258.37841797 C-129.89526659 259.68302094 -132.12170663 260.7932899 -134.4375 261.875 C-136.09588657 262.72247111 -137.75084299 263.57668729 -139.40234375 264.4375 C-140.21300293 264.85644531 -141.02366211 265.27539062 -141.85888672 265.70703125 C-159.31097686 275.18327929 -173.17905065 291.0293861 -183.125 307.9375 C-197.35817178 301.60814706 -206.74026856 282.62777466 -212.6875 269 C-213.06068359 268.15759766 -213.43386719 267.31519531 -213.81835938 266.44726562 C-214.56182982 264.76766892 -215.3021929 263.086693 -216.03930664 261.40429688 C-216.76000898 259.76679374 -217.4883122 258.13261382 -218.22436523 256.50195312 C-222.74626221 246.48254084 -225.40421948 236.19669952 -227.8125 225.5 C-228.13432251 224.1075708 -228.13432251 224.1075708 -228.46264648 222.68701172 C-234.79277018 193.62150962 -233.22414957 160.39708115 -225.125 131.9375 C-224.91182129 131.14069824 -224.69864258 130.34389648 -224.47900391 129.52294922 C-211.5346776 81.17367361 -178.03526273 41.0861966 -136.125 14.9375 C-135.31675781 14.40898438 -134.50851563 13.88046875 -133.67578125 13.3359375 C-129.92212977 10.89070168 -126.49490647 9.13922428 -122.125 7.9375 C-122.43953125 8.59234375 -122.7540625 9.2471875 -123.078125 9.921875 C-130.57808397 25.91576342 -132.30284311 39.32228109 -132.25 56.875 C-132.25386719 58.15568359 -132.25773437 59.43636719 -132.26171875 60.75585938 C-132.25379391 68.53408496 -131.91659802 76.19913344 -131.125 83.9375 C-129.145 83.6075 -127.165 83.2775 -125.125 82.9375 C-125.10518066 82.33389648 -125.08536133 81.73029297 -125.06494141 81.10839844 C-124.11398803 53.5465122 -118.67165934 33.96846937 -100.125 12.9375 C-99.64933594 12.36386719 -99.17367187 11.79023437 -98.68359375 11.19921875 C-95.44525257 8.57770446 -91.05031337 9.56170704 -87.125 9.9375 C-85.40552266 10.39630285 -83.69665388 10.89650156 -82 11.43359375 C-76.13316727 13.08450236 -70.6974884 13.43695413 -64.625 13.375 C-63.02615967 13.36364014 -63.02615967 13.36364014 -61.39501953 13.35205078 C-43.36914738 12.99273978 -25.45527724 10.86995332 -9.125 2.9375 C-2.54197505 -0.07476397 -2.54197505 -0.07476397 0 0 Z " fill="#64C8FD" transform="translate(296.125,62.0625)"/>
<path d="M0 0 C1.875 0.9375 1.875 0.9375 3.9375 2.625 C6.70254638 4.80173864 9.15902232 6.05412924 12.3125 7.5625 C17.65775635 10.37804947 19.67953377 13.27917586 22.41796875 18.54296875 C25.36294506 23.38283598 30.40002331 25.98310332 35.0625 29 C38.81250351 32.17694667 39.87277306 36.67569675 41.45703125 41.1875 C44.20346076 48.7811651 48.25839254 55.90270631 51.97607422 63.05615234 C52.51192139 64.10150146 52.51192139 64.10150146 53.05859375 65.16796875 C53.3827124 65.79469482 53.70683105 66.4214209 54.04077148 67.06713867 C55.78368924 70.97480415 55.98813492 74.43416682 55.9375 78.6875 C55.92847656 79.67234375 55.91945313 80.6571875 55.91015625 81.671875 C55.89275391 82.79335937 55.89275391 82.79335937 55.875 83.9375 C56.74125 83.855 57.6075 83.7725 58.5 83.6875 C62.77859136 84.00443269 64.5842334 85.21904063 67.875 87.9375 C73.65628648 95.43754732 73.09101942 102.41674286 73.11523438 111.52661133 C73.12492234 113.73231984 73.15596133 115.93708868 73.1875 118.14257812 C73.19403292 119.55989035 73.19928226 120.97720918 73.203125 122.39453125 C73.2124707 123.67303955 73.22181641 124.95154785 73.23144531 126.26879883 C72.68400146 131.90334596 71.14205174 135.67044826 67.0625 139.75 C63.875 141.9375 63.875 141.9375 57.875 143.9375 C57.875 127.4375 57.875 110.9375 57.875 93.9375 C56.225 93.9375 54.575 93.9375 52.875 93.9375 C52.89071045 94.88367188 52.9064209 95.82984375 52.92260742 96.8046875 C52.97791913 100.39802138 53.0117079 103.99131995 53.03979492 107.58496094 C53.0546558 109.12473934 53.07495039 110.66447723 53.10131836 112.20410156 C53.38589608 129.27876496 52.37960201 149.34115216 40.875 162.9375 C35.0628421 168.54572254 26.7909194 173.5058583 18.671875 174.21875 C15.875 173.9375 15.875 173.9375 13.75 171.5625 C12.15199599 168.78250129 11.02722396 165.86274352 9.875 162.875 C6.9489011 155.41456465 3.60701618 152.35664161 -3.6171875 149.0078125 C-13.66869083 144.71791856 -22.88346311 145.4294742 -33.3984375 147.59765625 C-36.33704019 147.96392908 -38.23466412 147.53352972 -41.125 146.9375 C-44.41663629 146.75645627 -47.70400574 146.75241288 -51 146.75 C-51.87269531 146.73775391 -52.74539062 146.72550781 -53.64453125 146.71289062 C-61.90616695 146.69425536 -67.23148116 148.12806825 -74.125 152.9375 C-74.785 152.9375 -75.445 152.9375 -76.125 152.9375 C-76.40472656 153.63746094 -76.68445313 154.33742187 -76.97265625 155.05859375 C-77.35292969 156.00863281 -77.73320312 156.95867187 -78.125 157.9375 C-78.51558594 158.91847656 -78.90617187 159.89945313 -79.30859375 160.91015625 C-79.92927734 162.43962891 -79.92927734 162.43962891 -80.5625 164 C-80.97371094 165.02222656 -81.38492188 166.04445312 -81.80859375 167.09765625 C-83.03080252 169.73429059 -84.16847567 171.7953567 -86.125 173.9375 C-93.21312662 175.44561205 -99.18894669 171.50544694 -105.125 167.9375 C-117.02902843 159.71432247 -119.37948975 148.34205004 -122.125 134.9375 C-122.30442139 134.20474854 -122.48384277 133.47199707 -122.66870117 132.71704102 C-123.27904104 128.99916013 -123.24810438 125.32959296 -123.22265625 121.57421875 C-123.2212413 120.78223587 -123.21982635 119.99025299 -123.21836853 119.17427063 C-123.21279457 116.65780781 -123.20024693 114.14143569 -123.1875 111.625 C-123.18248163 109.91341275 -123.17791931 108.20182409 -123.17382812 106.49023438 C-123.16283368 102.30595492 -123.14558707 98.12174281 -123.125 93.9375 C-124.775 93.9375 -126.425 93.9375 -128.125 93.9375 C-128.125 110.4375 -128.125 126.9375 -128.125 143.9375 C-132.81149569 143.00020086 -133.96959274 142.67908509 -137.3125 139.75 C-137.98667969 139.17894531 -138.66085938 138.60789063 -139.35546875 138.01953125 C-144.51094066 131.95360072 -143.46331882 123.68461617 -143.44067383 116.19750977 C-143.43751361 114.00942148 -143.46101008 111.82268725 -143.48632812 109.63476562 C-143.48860166 108.22656418 -143.48930436 106.81835915 -143.48828125 105.41015625 C-143.49126221 104.14437744 -143.49424316 102.87859863 -143.49731445 101.57446289 C-142.8576568 95.3259514 -140.38475166 90.59660338 -136.125 85.9375 C-133.22407498 84.00354999 -132.22825263 83.63618059 -128.9375 83.3125 C-127.679375 83.18875 -126.42125 83.065 -125.125 82.9375 C-125.10518066 82.33389648 -125.08536133 81.73029297 -125.06494141 81.10839844 C-124.11398803 53.5465122 -118.67165934 33.96846937 -100.125 12.9375 C-99.41150391 12.07705078 -99.41150391 12.07705078 -98.68359375 11.19921875 C-95.44525257 8.57770446 -91.05031337 9.56170704 -87.125 9.9375 C-85.40552266 10.39630285 -83.69665388 10.89650156 -82 11.43359375 C-76.13316727 13.08450236 -70.6974884 13.43695413 -64.625 13.375 C-63.02615967 13.36364014 -63.02615967 13.36364014 -61.39501953 13.35205078 C-43.36914738 12.99273978 -25.45527724 10.86995332 -9.125 2.9375 C-2.54197505 -0.07476397 -2.54197505 -0.07476397 0 0 Z " fill="#D5E7ED" transform="translate(296.125,62.0625)"/>
<path d="M0 0 C16.24236448 6.12031125 29.64462925 18.15665362 42 30 C42.59071289 30.55816406 43.18142578 31.11632812 43.79003906 31.69140625 C53.32704177 40.736401 61.44901725 50.25007874 69 61 C69.60328125 61.83015625 70.2065625 62.6603125 70.828125 63.515625 C74.94269121 69.36264014 77.99278565 75.74654548 81.10009766 82.16503906 C82.56529704 85.15267839 84.10533149 88.10227804 85.625 91.0625 C89.76363579 99.34907189 93.28326948 107.7141218 95.43530273 116.73925781 C95.83139965 118.32501545 96.26245939 119.90225429 96.71899414 121.47167969 C106.61029738 155.47743529 106.38262562 197.25911716 93.90136719 230.54443359 C92.86454684 233.36901081 92.04214727 236.22315438 91.25 239.125 C84.92914377 259.93938204 72.77676271 281.95901634 56 296 C55.34 296 54.68 296 54 296 C52.81108331 294.33551663 51.70134019 292.61440208 50.625 290.875 C37.85812309 271.33292126 19.77854065 254.89546026 -2 246 C-3 245 -3 245 -3.25 241.5 C-4.03691339 234.84700497 -7.28515891 229.26988895 -12.1875 224.75 C-22.83330062 216.47499866 -37.31687059 211.5816187 -50.70703125 211.23828125 C-53 211 -53 211 -55 209 C-53.49373047 208.32517578 -53.49373047 208.32517578 -51.95703125 207.63671875 C-31.66569473 198.22946155 -16.50996843 182.881835 -8 162 C-5.03884974 153.6183041 -2.20591274 144.94891838 -1.61328125 136.046875 C-1.2559205 132.24368526 -1.2559205 132.24368526 0.9609375 130.1328125 C1.75757813 129.80023438 2.55421875 129.46765625 3.375 129.125 C7.78840992 127.18424971 10.21385779 125.95679286 12.06469727 121.34985352 C13.63022087 115.74281897 13.33315075 110.03839653 13.31567383 104.26000977 C13.31251361 102.07192148 13.33601008 99.88518725 13.36132812 97.69726562 C13.36360166 96.28906418 13.36430436 94.88085915 13.36328125 93.47265625 C13.36626221 92.20687744 13.36924316 90.94109863 13.37231445 89.63696289 C12.82483232 84.28887025 11.14542994 80.47269564 7.8125 76.1875 C4.20842503 73.38433058 1.4604719 72.8316134 -3 72 C-2.04915527 71.63273804 -2.04915527 71.63273804 -1.07910156 71.25805664 C1.12425887 70.19553816 1.12425887 70.19553816 1.82128906 68.15014648 C2.04123535 67.02201538 2.04123535 67.02201538 2.265625 65.87109375 C2.43384766 65.01362549 2.60207031 64.15615723 2.77539062 63.27270508 C2.93201172 62.3370874 3.08863281 61.40146973 3.25 60.4375 C3.41693359 59.46385498 3.58386719 58.49020996 3.75585938 57.48706055 C6.59352875 39.26372157 5.71582971 21.78379154 1 4 C0.66470932 2.66715753 0.33086612 1.33394771 0 0 Z " fill="#64C8FD" transform="translate(355,74)"/>
<path d="M0 0 C1.12222458 -0.00271912 1.12222458 -0.00271912 2.26712036 -0.00549316 C17.14353909 -0.00141648 17.14353909 -0.00141648 24.375 2.375 C25.32246094 2.67019531 26.26992188 2.96539062 27.24609375 3.26953125 C35.02740687 6.05280155 42.25673829 8.75958537 47.75 15.125 C49.86760955 17.41948646 50.86303743 18.28492538 53.97265625 18.83203125 C55.86431127 18.90228529 57.75626977 18.96479913 59.6484375 19.01953125 C64.20196571 19.61318607 67.316087 22.04382773 70.375 25.375 C70.684375 26.2825 70.99375 27.19 71.3125 28.125 C71.663125 28.8675 72.01375 29.61 72.375 30.375 C74.58156807 31.08929111 76.77629479 31.46445622 79.05859375 31.87109375 C83.19243558 32.7703612 85.9739323 34.64658003 88.62890625 37.921875 C93.01201611 45.06924578 92.24940788 54.40572004 90.6875 62.375 C90.28742043 66.21576386 91.53025501 68.05445902 93.375 71.375 C93.375 72.695 93.375 74.015 93.375 75.375 C94.035 75.375 94.695 75.375 95.375 75.375 C96.02381448 77.91593855 96.66912899 80.45768273 97.3125 83 C97.49490234 83.71285156 97.67730469 84.42570312 97.86523438 85.16015625 C102.82285418 104.8103584 100.80285724 124.80587294 96.375 144.375 C94.725 144.705 93.075 145.035 91.375 145.375 C91.28863281 144.48039063 91.20226562 143.58578125 91.11328125 142.6640625 C90.15954621 134.45669126 88.4097884 128.5041374 84.375 121.375 C82.99202189 118.74356918 81.64932909 116.09262116 80.3125 113.4375 C79.96324463 112.75026855 79.61398926 112.06303711 79.25415039 111.35498047 C77.25054545 107.34967471 75.59148494 103.38832011 74.1875 99.125 C72.69941716 94.80247367 71.37025654 92.8266347 67.375 90.375 C60.49265861 85.84376903 56.07202057 80.76904114 52.375 73.375 C49.41609405 71.80825706 46.39078356 70.4201027 43.35546875 69.0078125 C40.375 67.375 40.375 67.375 38.23828125 65.1171875 C37.62339844 64.54226562 37.00851562 63.96734375 36.375 63.375 C34.43813653 63.64548518 34.43813653 63.64548518 32.375 64.375 C31.73111328 64.58374756 31.08722656 64.79249512 30.42382812 65.00756836 C28.23990377 65.77315752 26.05657744 66.54024381 23.875 67.3125 C23.11574219 67.57740234 22.35648437 67.84230469 21.57421875 68.11523438 C20.83816406 68.37498047 20.10210937 68.63472656 19.34375 68.90234375 C18.67794922 69.13687256 18.01214844 69.37140137 17.32617188 69.61303711 C15.3461278 70.34125308 15.3461278 70.34125308 13.46557617 71.40014648 C1.41972297 77.01723066 -16.04824394 76.7547396 -29.125 76.8125 C-30.11910889 76.8223291 -31.11321777 76.8321582 -32.13745117 76.84228516 C-38.13631879 76.77244261 -43.38542023 75.86655647 -49.11645508 74.08911133 C-53.39044059 72.87242932 -57.29156481 72.17207317 -61.625 73.375 C-69.04774509 78.79610597 -73.91385902 88.58418527 -78.625 96.375 C-79.29015625 97.44492188 -79.9553125 98.51484375 -80.640625 99.6171875 C-86.13151589 109.51086862 -87.50176268 119.48058062 -88.375 130.5625 C-88.49992737 132.00597901 -88.62622078 133.44934047 -88.75390625 134.89257812 C-89.05999236 138.38550804 -89.34769799 141.8796529 -89.625 145.375 C-91.605 145.705 -93.585 146.035 -95.625 146.375 C-102.42004548 132.78490904 -99.41577854 101.68399221 -95.03808594 87.46923828 C-92.57677126 80.1444088 -89.52297867 73.429342 -84.7265625 67.3046875 C-83.30825084 64.82012736 -83.29961191 63.19350243 -83.625 60.375 C-84.94165664 58.69512773 -86.27763027 57.03033995 -87.625 55.375 C-91.16570651 48.16713318 -92.01041337 40.70224426 -89.96875 32.8515625 C-87.16301627 25.7646661 -82.3669057 20.50264563 -75.5625 17.0625 C-71.64668654 15.47211842 -67.87370992 14.93693936 -63.6875 14.4375 C-58.03496637 13.75216062 -53.97311577 12.39684164 -49.01953125 9.66796875 C-44.72585658 7.34952451 -40.27666547 5.81822378 -35.625 4.375 C-34.46871094 3.99988281 -33.31242187 3.62476563 -32.12109375 3.23828125 C-21.50565352 0.17679569 -10.96234816 -0.00174391 0 0 Z " fill="#2C1B19" transform="translate(260.625,-0.375)"/>
<path d="M0 0 C1.65 0 3.3 0 5 0 C5.0093457 0.99628418 5.01869141 1.99256836 5.02832031 3.01904297 C4.92417724 28.84567652 4.92417724 28.84567652 10 54 C10.32226562 55.01320312 10.64453125 56.02640625 10.9765625 57.0703125 C14.54120256 67.01073153 21.14553019 72.77844576 30.5 77.3125 C34.47218499 78.96644733 37.66997826 79.77940391 42 79 C45.05973984 75.60028907 46.34072493 70.75806686 47.9375 66.5 C50.08950995 61.43644718 52.06106615 58.53008338 56.875 55.75 C57.71804687 55.24984375 58.56109375 54.7496875 59.4296875 54.234375 C65.06471313 51.52819248 70.74711145 51.84808394 76.875 51.875 C78.18404297 51.86919922 78.18404297 51.86919922 79.51953125 51.86328125 C83.38362692 51.86909192 87.00367246 52.00054227 90.8359375 52.56640625 C93.91359055 52.9881587 95.78569985 52.84446194 98.75 52.0625 C109.73197793 49.65708187 119.4083881 50.86483392 129.359375 56.28515625 C136.76605266 61.28327144 139.7314539 68.99206205 143 77 C143.33 77.66 143.66 78.32 144 79 C154.05792177 78.67023207 162.96847728 74.19893993 170 67 C178.35818757 56.20810487 180.00564351 39.03608961 180.31640625 25.87890625 C180.3475779 24.76176491 180.3475779 24.76176491 180.37937927 23.62205505 C180.4441821 21.26895375 180.50343365 18.91575157 180.5625 16.5625 C180.6057513 14.95637024 180.64936757 13.35025027 180.69335938 11.74414062 C180.79979122 7.82952751 180.90124851 3.91481409 181 0 C182.65 0 184.3 0 186 0 C186.14101821 7.32969604 186.24661583 14.65908492 186.31087303 21.98987865 C186.3417639 25.39650134 186.38342188 28.8021753 186.45263672 32.20825195 C186.9795884 60.23484853 182.77158822 83.4166338 164 105 C163.53335938 105.60972656 163.06671875 106.21945312 162.5859375 106.84765625 C155.28876309 116.21449709 144.68948492 122.26104614 134 127 C133.00806641 127.45826172 133.00806641 127.45826172 131.99609375 127.92578125 C126.4367788 130.2671774 120.48763057 131.20874251 114.5859375 132.3046875 C111.88852046 132.82771608 109.32535155 133.44723336 106.6875 134.1875 C86.91903638 138.38966879 63.92061939 132.54207742 46 124 C45.01644531 123.53464844 44.03289062 123.06929688 43.01953125 122.58984375 C25.88092409 113.56602342 10.76813915 94.90670872 4.88671875 76.51953125 C3.87389007 73.02435154 2.92725236 69.51869999 2 66 C1.65557861 65.05527832 1.31115723 64.11055664 0.95629883 63.13720703 C-0.68348993 57.3756529 -0.24415459 51.34556675 -0.1953125 45.41015625 C-0.1924826 44.11049423 -0.18965271 42.81083221 -0.18673706 41.4717865 C-0.17914655 38.03750745 -0.15953823 34.60340093 -0.1373291 31.16918945 C-0.11677121 27.65643649 -0.1077142 24.14365531 -0.09765625 20.63085938 C-0.07628736 13.75383594 -0.04220764 6.87692628 0 0 Z " fill="#2F1E1B" transform="translate(168,156)"/>
<path d="M0 0 C1.875 0.9375 1.875 0.9375 3.9375 2.625 C6.70254638 4.80173864 9.15902232 6.05412924 12.3125 7.5625 C17.65775635 10.37804947 19.67953377 13.27917586 22.41796875 18.54296875 C25.36294506 23.38283598 30.40002331 25.98310332 35.0625 29 C38.81250351 32.17694667 39.87277306 36.67569675 41.45703125 41.1875 C44.20346076 48.7811651 48.25839254 55.90270631 51.97607422 63.05615234 C52.51192139 64.10150146 52.51192139 64.10150146 53.05859375 65.16796875 C53.3827124 65.79469482 53.70683105 66.4214209 54.04077148 67.06713867 C55.70954195 70.80856406 55.99106855 74.11629029 55.9375 78.1875 C55.92847656 79.07953125 55.91945313 79.9715625 55.91015625 80.890625 C55.89275391 81.90382812 55.89275391 81.90382812 55.875 82.9375 C48.48280287 83.43031314 48.48280287 83.43031314 45.5625 81.0625 C45.005625 80.36125 44.44875 79.66 43.875 78.9375 C37.69521407 74.81764272 30.05611066 75.76181871 22.87109375 75.734375 C21.71505142 75.72867493 20.55900909 75.72297485 19.36793518 75.71710205 C16.92962554 75.70767712 14.49130331 75.70112806 12.05297852 75.69726562 C8.32220457 75.68752534 4.59197374 75.65646357 0.86132812 75.625 C-1.5104134 75.61847276 -3.88215886 75.61322119 -6.25390625 75.609375 C-7.3685878 75.5970282 -8.48326935 75.5846814 -9.63172913 75.57196045 C-10.67308517 75.57496155 -11.71444122 75.57796265 -12.78735352 75.58105469 C-13.69969254 75.57740906 -14.61203156 75.57376343 -15.55201721 75.57000732 C-18.70890419 76.02089757 -20.5803331 77.03636435 -23.125 78.9375 C-23.62 80.4225 -23.62 80.4225 -24.125 81.9375 C-24.90875 81.7725 -25.6925 81.6075 -26.5 81.4375 C-33.0932488 80.52808637 -39.59460284 80.56267955 -46.125 81.9375 C-46.125 80.9475 -46.125 79.9575 -46.125 78.9375 C-46.74375 78.628125 -47.3625 78.31875 -48 78 C-49.375 77.3125 -50.75 76.625 -52.125 75.9375 C-53.83888528 75.83168275 -55.55682146 75.78872819 -57.27392578 75.77636719 C-58.34909454 75.76675964 -59.42426331 75.7571521 -60.53201294 75.74725342 C-61.69965179 75.74300354 -62.86729065 75.73875366 -64.0703125 75.734375 C-65.26929169 75.72867493 -66.46827087 75.72297485 -67.70358276 75.71710205 C-70.24736648 75.70763938 -72.79116253 75.70111306 -75.33496094 75.69726562 C-79.21311137 75.68759201 -83.09072477 75.65659287 -86.96875 75.625 C-89.44010102 75.61846686 -91.91145583 75.61321761 -94.3828125 75.609375 C-96.1160527 75.5908548 -96.1160527 75.5908548 -97.88430786 75.57196045 C-104.34877571 75.58969268 -109.27694432 76.10150648 -115.125 78.9375 C-115.764375 79.63875 -116.40375 80.34 -117.0625 81.0625 C-120.26564273 83.97444794 -123.92711435 83.75810318 -128.125 83.9375 C-126.64 83.4425 -126.64 83.4425 -125.125 82.9375 C-125.10518066 82.33389648 -125.08536133 81.73029297 -125.06494141 81.10839844 C-124.11398803 53.5465122 -118.67165934 33.96846937 -100.125 12.9375 C-99.64933594 12.36386719 -99.17367187 11.79023437 -98.68359375 11.19921875 C-95.44525257 8.57770446 -91.05031337 9.56170704 -87.125 9.9375 C-85.40552266 10.39630285 -83.69665388 10.89650156 -82 11.43359375 C-76.13316727 13.08450236 -70.6974884 13.43695413 -64.625 13.375 C-63.02615967 13.36364014 -63.02615967 13.36364014 -61.39501953 13.35205078 C-43.36914738 12.99273978 -25.45527724 10.86995332 -9.125 2.9375 C-2.54197505 -0.07476397 -2.54197505 -0.07476397 0 0 Z " fill="#EBB789" transform="translate(296.125,62.0625)"/>
<path d="M0 0 C0.72058594 -0.00773438 1.44117188 -0.01546875 2.18359375 -0.0234375 C5.60838842 0.55017343 7.70456025 1.35324317 10.5625 3.375 C11.76722838 6.14194971 12.17048112 8.96715278 12.625 11.9375 C15.08325309 24.93351621 19.9939727 34.38324922 30.5625 42.75 C37.43631013 46.47331382 43.19416037 47.93586059 50.9375 47.875 C51.77313477 47.87000488 52.60876953 47.86500977 53.46972656 47.85986328 C60.15348725 47.67109326 65.10623686 46.38978462 70.5625 42.375 C71.19027344 41.9521875 71.81804687 41.529375 72.46484375 41.09375 C80.75004242 34.85718907 85.30875319 25.27002169 87.5625 15.375 C87.8925 15.375 88.2225 15.375 88.5625 15.375 C88.88949575 29.39389488 89.0398112 42.72333381 85.5625 56.375 C85.3459375 57.32375 85.129375 58.2725 84.90625 59.25 C82.41978362 68.9590592 77.19268385 76.25314131 68.5625 81.375 C58.05023594 87.02739803 58.05023594 87.02739803 51.5625 86.375 C48.55031794 83.00844358 47.17851854 79.50287365 45.5625 75.3125 C42.6364011 67.85206465 39.29451618 64.79414161 32.0703125 61.4453125 C22.01880917 57.15541856 12.80403689 57.8669742 2.2890625 60.03515625 C-0.64954019 60.40142908 -2.54716412 59.97102972 -5.4375 59.375 C-8.72913629 59.19395627 -12.01650574 59.18991288 -15.3125 59.1875 C-16.18519531 59.17525391 -17.05789062 59.16300781 -17.95703125 59.15039062 C-26.21866695 59.13175536 -31.54398116 60.56556825 -38.4375 65.375 C-39.0975 65.375 -39.7575 65.375 -40.4375 65.375 C-40.71722656 66.07496094 -40.99695313 66.77492188 -41.28515625 67.49609375 C-41.85556641 68.92115234 -41.85556641 68.92115234 -42.4375 70.375 C-42.82808594 71.35597656 -43.21867187 72.33695312 -43.62109375 73.34765625 C-44.03488281 74.36730469 -44.44867188 75.38695312 -44.875 76.4375 C-45.28621094 77.45972656 -45.69742188 78.48195313 -46.12109375 79.53515625 C-47.34330252 82.17179059 -48.48097567 84.2328567 -50.4375 86.375 C-57.52562662 87.88311205 -63.50144669 83.94294694 -69.4375 80.375 C-81.34152843 72.15182247 -83.69198975 60.77955004 -86.4375 47.375 C-86.61692139 46.60615479 -86.79634277 45.83730957 -86.98120117 45.04516602 C-87.51739217 41.90748759 -87.54969156 38.94495057 -87.53515625 35.76171875 C-87.53193359 34.51455078 -87.52871094 33.26738281 -87.52539062 31.98242188 C-87.51282227 30.04206055 -87.51282227 30.04206055 -87.5 28.0625 C-87.49548828 26.74958984 -87.49097656 25.43667969 -87.48632812 24.08398438 C-87.47455949 20.8476099 -87.4581176 17.61132822 -87.4375 14.375 C-87.1075 14.375 -86.7775 14.375 -86.4375 14.375 C-86.210625 15.674375 -85.98375 16.97375 -85.75 18.3125 C-83.44831745 28.40206734 -76.87778218 38.13356633 -68.18359375 43.859375 C-58.78449459 48.63681767 -46.85449044 49.34578665 -36.76171875 46.24609375 C-25.12444205 40.58271767 -18.12176562 33.09225213 -13.58984375 21.01171875 C-12.05514954 16.16832787 -11.17293949 11.29074373 -10.40625 6.2734375 C-9.4375 3.375 -9.4375 3.375 -7.12109375 1.5 C-4.50719282 0.4042162 -2.80854355 -0.0300379 0 0 Z " fill="#EBB789" transform="translate(260.4375,149.625)"/>
<path d="M0 0 C2.52348458 0.63002028 5.04691371 1.26026127 7.5703125 1.890625 C8.27583252 2.06674316 8.98135254 2.24286133 9.70825195 2.42431641 C13.05777639 3.26121543 16.40520537 4.10403886 19.74926758 4.96264648 C35.50064716 8.93032587 49.56939044 7.1348964 65 3 C67.70047926 2.42606522 70.40343187 1.90040556 73.1171875 1.39453125 C75.21167865 0.99329653 75.21167865 0.99329653 78 0 C78.09989549 5.33441895 78.17194633 10.66827721 78.21972656 16.00341797 C78.23967311 17.81308494 78.26684053 19.62268889 78.30175781 21.43212891 C78.59469573 37.01814934 77.2760083 49.05844851 66.2578125 60.8671875 C58.24039729 68.61846445 49.34403069 71.47285235 38.375 71.5625 C26.00825836 71.3170422 18.42888986 67.67768411 9.64453125 58.9453125 C2.09988022 50.54255493 -0.33452164 40.80243957 -0.1953125 29.78515625 C-0.1924826 28.92941513 -0.18965271 28.07367401 -0.18673706 27.19200134 C-0.17561935 24.48202009 -0.15053082 21.77237991 -0.125 19.0625 C-0.11495931 17.21549959 -0.10583537 15.36849396 -0.09765625 13.52148438 C-0.07570763 9.01419323 -0.04123654 4.50715427 0 0 Z " fill="#EBB889" transform="translate(222,283)"/>
<path d="M0 0 C1.62966473 0.09064428 3.26237291 0.13153304 4.89453125 0.140625 C6.32829102 0.16962891 6.32829102 0.16962891 7.79101562 0.19921875 C9.79341997 0.2328726 11.79614271 0.25128665 13.79882812 0.25390625 C21.9986752 0.46317031 21.9986752 0.46317031 25.58984375 3.3984375 C30.07471143 8.23947781 32.91702341 13.39479907 33.0390625 20.16796875 C32.29635583 30.44207773 26.77878061 37.85839014 19.1875 44.4375 C14.9753502 46.50227931 11.60166804 47.08924561 7 46 C5.06640625 44.6484375 5.06640625 44.6484375 3.1875 43 C-1.07093779 39.43005215 -4.65332501 39.14400213 -10.11328125 39.390625 C-14.02705252 40.21680676 -16.11261009 42.06531312 -19.07421875 44.640625 C-21.96150065 46.67870634 -24.30088455 46.84081081 -27.76953125 46.578125 C-35.03832991 44.69409312 -40.32604625 38.24115746 -44 32 C-46.87077615 26.01747013 -47.45844274 21.45881786 -46 15 C-43.86402002 8.9989134 -41.35002961 4.56668641 -36 1 C-33.8269043 0.71289062 -33.8269043 0.71289062 -31.32421875 0.65625 C-30.41349609 0.62660156 -29.50277344 0.59695312 -28.56445312 0.56640625 C-27.61505859 0.54449219 -26.66566406 0.52257812 -25.6875 0.5 C-0.28106936 -0.09368979 -0.28106936 -0.09368979 0 0 Z " fill="#E7B486" transform="translate(268,221)"/>
<path d="M0 0 C0.96339294 -0.0033284 1.92678589 -0.0066568 2.91937256 -0.01008606 C4.94656905 -0.01513134 6.97377379 -0.01749513 9.00097656 -0.01733398 C12.11276666 -0.01953365 15.22420944 -0.03775044 18.3359375 -0.05664062 C20.30729045 -0.05957234 22.27864509 -0.06155862 24.25 -0.0625 C25.18330139 -0.06968552 26.11660278 -0.07687103 27.07818604 -0.08427429 C27.93958191 -0.08119766 28.80097778 -0.07812103 29.68847656 -0.07495117 C30.44759338 -0.07637619 31.20671021 -0.07780121 31.98883057 -0.07926941 C33.859375 0.16796875 33.859375 0.16796875 35.859375 2.16796875 C36.78857081 11.82195114 36.68972414 21.70397174 30.97265625 29.859375 C25.8696054 35.97769251 21.02311845 40.50718349 12.90087891 41.37792969 C10.65529546 41.54001843 8.42279094 41.62327721 6.171875 41.66796875 C5.44677734 41.68682129 4.72167969 41.70567383 3.97460938 41.72509766 C-2.03539401 41.65197319 -5.58610186 39.65570698 -9.93359375 35.421875 C-17.48331607 26.26492888 -19.32426705 18.81053247 -19.50390625 7.0234375 C-19.140625 4.16796875 -19.140625 4.16796875 -17.99609375 2.34375 C-12.93395839 -0.86404525 -5.79353863 0.00696839 0 0 Z " fill="#EBB88A" transform="translate(204.140625,148.83203125)"/>
<path d="M0 0 C0.87818893 -0.00953201 1.75637787 -0.01906403 2.66117859 -0.02888489 C4.08923576 -0.02751778 4.08923576 -0.02751778 5.54614258 -0.02612305 C6.52553299 -0.03040817 7.5049234 -0.0346933 8.51399231 -0.03910828 C10.59118883 -0.04486028 12.6684055 -0.04534546 14.74560547 -0.04101562 C17.9105929 -0.03787168 21.07463129 -0.06124828 24.23950195 -0.08666992 C26.25838099 -0.08894455 28.27726252 -0.08964565 30.29614258 -0.08862305 C31.23805954 -0.09783279 32.1799765 -0.10704254 33.1504364 -0.11653137 C38.62746891 -0.07836895 44.60390926 0.12539363 48.75317383 4.2746582 C49.97488033 16.07113569 47.10721194 26.0302705 39.82739258 35.3371582 C34.32163184 40.48001569 29.65012128 41.96251062 22.31567383 41.7746582 C21.56503662 41.76329834 20.81439941 41.75193848 20.04101562 41.74023438 C14.46718284 41.54409667 10.27996292 40.681067 5.75317383 37.2746582 C4.70129883 36.6146582 3.64942383 35.9546582 2.56567383 35.2746582 C-2.4641591 30.9044755 -4.20401452 23.40309315 -6.24682617 17.2746582 C-6.36830747 14.74050184 -6.43192901 12.2459604 -6.43432617 9.7121582 C-6.44657227 9.02702148 -6.45881836 8.34188477 -6.47143555 7.63598633 C-6.4767015 5.84731708 -6.36882638 4.05916972 -6.24682617 2.2746582 C-3.84063198 -0.13153599 -3.28504854 0.01955831 0 0 Z " fill="#EBB88A" transform="translate(288.246826171875,148.725341796875)"/>
<path d="M0 0 C0.99257812 0.25394531 1.98515625 0.50789063 3.0078125 0.76953125 C6.61568494 1.68783369 10.22961455 2.57999768 13.84570312 3.46533203 C15.75032139 3.93803307 17.6491142 4.43407301 19.546875 4.93359375 C35.43420143 8.83083697 49.43616713 7.17059587 65 3 C67.70047926 2.42606522 70.40343187 1.90040556 73.1171875 1.39453125 C75.21167865 0.99329653 75.21167865 0.99329653 78 0 C78 3.3 78 6.6 78 10 C75.89625 10.928125 75.89625 10.928125 73.75 11.875 C70.39588653 13.35298114 70.39588653 13.35298114 67.140625 15.03125 C50.44530441 22.58679654 26.20732992 20.65889632 9.37890625 14.72265625 C1.53534226 11.53534226 1.53534226 11.53534226 0 10 C-0.07205511 8.31391034 -0.08386068 6.62499341 -0.0625 4.9375 C-0.05347656 4.01839844 -0.04445312 3.09929687 -0.03515625 2.15234375 C-0.02355469 1.44207031 -0.01195312 0.73179687 0 0 Z " fill="#D4A57B" transform="translate(222,283)"/>
<path d="M0 0 C0 20.79 0 41.58 0 63 C-9 66 -9 66 -12 66 C-12 45.87 -12 25.74 -12 5 C-2 0 -2 0 0 0 Z " fill="#F3F3F3" transform="translate(322,358)"/>
<path d="M0 0 C4.41717399 1.60624509 7.77256518 3.58432296 12 6 C12 25.8 12 45.6 12 66 C1 64 1 64 0 63 C-0.0940067 61.03630847 -0.11743381 59.06920801 -0.11352539 57.10327148 C-0.11344986 55.84203964 -0.11337433 54.5808078 -0.11329651 53.28135681 C-0.1081891 51.89460206 -0.10297309 50.50784771 -0.09765625 49.12109375 C-0.09579201 47.71004791 -0.09436814 46.29900143 -0.09336853 44.88795471 C-0.08954379 41.16759465 -0.0797139 37.4472734 -0.06866455 33.72692871 C-0.05844948 29.93319219 -0.05387071 26.13944942 -0.04882812 22.34570312 C-0.03809158 14.89711769 -0.0210157 7.44856428 0 0 Z " fill="#EAEBEB" transform="translate(200,358)"/>
<path d="M0 0 C1.32 0 2.64 0 4 0 C5.5625 2.375 5.5625 2.375 7 5 C10.89310849 7.59540566 14.1689213 7.2877783 18.68359375 7.265625 C19.53550797 7.26753845 20.38742218 7.2694519 21.26515198 7.27142334 C23.06650081 7.27278401 24.86785948 7.26909581 26.66918945 7.26074219 C29.42356473 7.25005407 32.17728583 7.26063456 34.93164062 7.2734375 C36.6822931 7.27211563 38.43294518 7.26955265 40.18359375 7.265625 C41.41812538 7.27169769 41.41812538 7.27169769 42.67759705 7.27789307 C48.18015431 7.31249793 48.18015431 7.31249793 53 5 C54.28254644 2.46229997 54.28254644 2.46229997 55 0 C56.32 0.33 57.64 0.66 59 1 C60.64521904 5.59155902 58.99640153 8.84955073 57.32421875 13.2265625 C55.43792996 17.17719683 53.05108066 19.8795766 50 23 C49.3709375 22.71125 48.741875 22.4225 48.09375 22.125 C40.43293898 18.80223859 35.21693009 18.3082791 27 20 C26.34 19.67 25.68 19.34 25 19 C19.06377143 18.38263223 15.29488002 19.16785488 10 22 C7.9375 22.0625 7.9375 22.0625 6 21 C1.2605749 16.49176637 -0.9544999 11.46503122 -2 5 C-1.4125 1.4125 -1.4125 1.4125 0 0 Z " fill="#4C3A2C" transform="translate(232,225)"/>
<path d="M0 0 C0.515625 0.639375 1.03125 1.27875 1.5625 1.9375 C4.3728396 4.68599027 4.3728396 4.68599027 11 5 C11 21.17 11 37.34 11 54 C6.31350431 53.06270086 5.15540726 52.74158509 1.8125 49.8125 C1.13832031 49.24144531 0.46414062 48.67039063 -0.23046875 48.08203125 C-5.38594066 42.01610072 -4.33831882 33.74711617 -4.31567383 26.26000977 C-4.31251361 24.07192148 -4.33601008 21.88518725 -4.36132812 19.69726562 C-4.36360166 18.28906418 -4.36430436 16.88085915 -4.36328125 15.47265625 C-4.36626221 14.20687744 -4.36924316 12.94109863 -4.37231445 11.63696289 C-3.95517272 7.56210365 -3.02631103 3.02631103 0 0 Z " fill="#EAB88A" transform="translate(157,152)"/>
<path d="M0 0 C2.88890417 2.6093328 4.36165142 4.16462957 5 8 C5.22239438 12.52774747 5.22818658 17.0566288 5.24023438 21.58911133 C5.24992234 23.79481984 5.28096133 25.99958868 5.3125 28.20507812 C5.31903292 29.62239035 5.32428226 31.03970918 5.328125 32.45703125 C5.34214355 34.3747937 5.34214355 34.3747937 5.35644531 36.33129883 C4.80900146 41.96584596 3.26705174 45.73294826 -0.8125 49.8125 C-4 52 -4 52 -10 54 C-10 37.83 -10 21.66 -10 5 C-7.36 4.34 -4.72 3.68 -2 3 C-1.34 2.01 -0.68 1.02 0 0 Z " fill="#EBB98B" transform="translate(364,152)"/>
<path d="M0 0 C13.2 0 26.4 0 40 0 C38.90763683 5.46181585 38.23459313 6.64192212 34 10 C30.40625 11.1796875 30.40625 11.1796875 26.5 11.875 C25.2109375 12.11992187 23.921875 12.36484375 22.59375 12.6171875 C19.22258764 12.97628958 17.23719647 12.76840039 14 12 C11.23379359 11.73463926 8.46201666 11.58874711 5.6875 11.4375 C4.94693359 11.39431641 4.20636719 11.35113281 3.44335938 11.30664062 C1.62908536 11.20129568 -0.1854355 11.10021684 -2 11 C-2 10.67 -2 10.34 -2 10 C1.465 9.505 1.465 9.505 5 9 C4.175 8.071875 3.35 7.14375 2.5 6.1875 C0 3.375 0 3.375 0 0 Z " fill="#C29771" transform="translate(241,197)"/>
<path d="M0 0 C0.33 -0.33 0.66 -0.66 1 -1 C7.19799214 -1.43494682 11.30316864 -0.44149915 17 2 C17 3.32 17 4.64 17 6 C9.58390964 12.14992859 1.26827401 12.77336315 -8 12 C-14.35324874 10.74309762 -18.95430882 7.97213987 -24 4 C-16.42485279 -2.17234217 -9.21470434 -1.61257326 0 0 Z " fill="#F8506B" transform="translate(263,244)"/>
<path d="M0 0 C16.5 0 33 0 50 0 C48 6 48 6 46.42163086 7.35400391 C42.72469883 8.34020031 39.05305432 8.32558477 35.25390625 8.3359375 C33.98171486 8.3459227 33.98171486 8.3459227 32.68382263 8.35610962 C30.89267135 8.36622022 29.10148252 8.37092713 27.31030273 8.37060547 C24.57537618 8.37497941 21.84206313 8.41131624 19.10742188 8.44921875 C17.36458884 8.45508718 15.62174815 8.4590564 13.87890625 8.4609375 C13.0641835 8.47530853 12.24946075 8.48967957 11.41004944 8.50448608 C7.47919069 8.47297216 5.41522166 8.24177296 1.94506836 6.22119141 C0 4 0 4 0 0 Z " fill="#FDFDFD" transform="translate(237,225)"/>
<path d="M0 0 C2.16545878 1.55137345 4.03771428 3.18488571 6 5 C2.84144668 5.93648027 0.04808414 6.10630052 -3.23999023 6.06591797 C-4.80697914 6.05128006 -4.80697914 6.05128006 -6.40562439 6.03634644 C-7.52860428 6.02177399 -8.65158417 6.00720154 -9.80859375 5.9921875 C-12.18814679 5.97467262 -14.56770435 5.9577642 -16.94726562 5.94140625 C-20.69779949 5.91042433 -24.44810797 5.87486916 -28.19848633 5.82861328 C-31.81855093 5.78629559 -35.43834949 5.76284003 -39.05859375 5.7421875 C-40.17954941 5.72356659 -41.30050507 5.70494568 -42.45542908 5.6857605 C-44.02714622 5.68057907 -44.02714622 5.68057907 -45.63061523 5.67529297 C-47.00817238 5.66077591 -47.00817238 5.66077591 -48.41355896 5.64596558 C-51.58620225 6.0802399 -53.44698333 7.08865305 -56 9 C-56.33 9.99 -56.66 10.98 -57 12 C-61.455 11.01 -61.455 11.01 -66 10 C-65 8 -65 8 -62.9375 7.10546875 C-52.12614475 3.72692024 -41.05589132 1.68503278 -29.94140625 -0.43188477 C-26.3555828 -1.12446537 -22.78015442 -1.86374298 -19.20629883 -2.61547852 C-12.3307994 -3.81376463 -6.20219479 -3.32864123 0 0 Z " fill="#66503C" transform="translate(329,132)"/>
<path d="M0 0 C3.0625 1.9375 3.0625 1.9375 5 5 C5.62337099 8.12798656 5.6483903 10.87487559 5 14 C3.12379387 16.50160818 1.76108697 17.61945652 -1 19 C-7.94263424 19.68288206 -7.94263424 19.68288206 -12 17.0625 C-14.33179981 13.49193154 -14.74577495 11.3549794 -14.47265625 7.16015625 C-14 5 -14 5 -12.0625 1.9375 C-7.94141507 -0.669717 -4.75058323 -1.03945854 0 0 Z " fill="#634D39" transform="translate(308,158)"/>
<path d="M0 0 C3.20879247 2.03005238 4.62927537 3.42299447 5.5078125 7.16015625 C5.85371888 11.66445895 5.42003298 13.4854596 2.5 17.0625 C-1.41039951 19.71565523 -4.38198045 19.73301898 -9 19 C-12.13836313 16.97314048 -13.65870267 15.54702808 -14.4765625 11.83984375 C-14.74016844 7.68458176 -14.31813896 5.50286481 -12.0625 1.9375 C-7.94141507 -0.669717 -4.75058323 -1.03945854 0 0 Z " fill="#634D39" transform="translate(223,158)"/>
<path d="M0 0 C0.33 0 0.66 0 1 0 C1 8.25 1 16.5 1 25 C0.67 25 0.34 25 0 25 C-0.33 20.38 -0.66 15.76 -1 11 C-1.99 12.815 -2.98 14.63 -4 16.5 C-9.47553398 25.842561 -15.72354103 32.42838596 -26.1875 35.6796875 C-36.04180842 38.17748095 -45.33929044 37.59743724 -54.38671875 32.7109375 C-62.91256938 27.29723948 -68.60553184 21.07962098 -73 12 C-73.45375 11.071875 -73.9075 10.14375 -74.375 9.1875 C-75.09343169 6.6729891 -74.71303446 5.46461912 -74 3 C-73.74347656 3.75023437 -73.48695313 4.50046875 -73.22265625 5.2734375 C-69.48289111 15.27132814 -63.64611753 23.86908642 -54 29 C-48.02998698 31.59932163 -43.11901104 32.5510412 -36.625 32.5 C-35.78936523 32.49500488 -34.95373047 32.49000977 -34.09277344 32.48486328 C-27.40901275 32.29609326 -22.45626314 31.01478462 -17 27 C-16.37222656 26.5771875 -15.74445313 26.154375 -15.09765625 25.71875 C-6.81245758 19.48218907 -2.25374681 9.89502169 0 0 Z " fill="#C49C78" transform="translate(348,165)"/>
<path d="M0 0 C0.33 0 0.66 0 1 0 C1.226875 1.299375 1.45375 2.59875 1.6875 3.9375 C3.98918255 14.02706734 10.55971782 23.75856633 19.25390625 29.484375 C28.65300541 34.26181767 40.58300956 34.97078665 50.67578125 31.87109375 C61.746155 26.48360564 68.8341236 19.07366059 74 8 C74.495 8.99 74.495 8.99 75 10 C70.65362473 21.82068589 63.71023737 29.19317671 52.59375 34.8125 C42.5973827 39.38915009 33.47669035 38.90174324 23.1796875 35.44921875 C14.19426002 31.35389492 7.92992263 23.35222366 3 15 C2.67 14.01 2.34 13.02 2 12 C1.67 17.28 1.34 22.56 1 28 C0.67 28 0.34 28 0 28 C0 18.76 0 9.52 0 0 Z " fill="#C39B76" transform="translate(173,164)"/>
<path d="M0 0 C1.24265625 0.28617188 2.4853125 0.57234375 3.765625 0.8671875 C6.80447266 1.56846004 9.84064714 2.27957272 12.875 3 C12.875 3.33 12.875 3.66 12.875 4 C-11.875 4.99 -11.875 4.99 -37.125 6 C-26.63183583 -6.591797 -14.77253611 -3.5112452 0 0 Z " fill="#66503D" transform="translate(224.125,132)"/>
<path d="M0 0 C0.87826447 -0.00960754 1.75652893 -0.01921509 2.66140747 -0.02911377 C3.61860687 -0.03336365 4.57580627 -0.03761353 5.56201172 -0.04199219 C7.03321976 -0.0505423 7.03321976 -0.0505423 8.53414917 -0.05926514 C10.61731889 -0.06873475 12.70050372 -0.07525686 14.78369141 -0.07910156 C17.95746501 -0.08876297 21.13057901 -0.11974955 24.30419922 -0.15136719 C26.32763287 -0.15790144 28.35107116 -0.16315025 30.37451172 -0.16699219 C31.31956573 -0.17933899 32.26461975 -0.19168579 33.23831177 -0.20440674 C38.86266969 -0.18559301 42.93468395 0.36203786 47.86669922 3.16113281 C48.80419922 5.84863281 48.80419922 5.84863281 48.86669922 8.16113281 C48.37169922 7.17113281 48.37169922 7.17113281 47.86669922 6.16113281 C38.77918144 2.93401346 28.12716344 3.89141338 18.62963867 3.95532227 C15.77953309 3.97379266 12.92974957 3.97583002 10.07958984 3.97558594 C8.26773806 3.98049448 6.45588847 3.98631988 4.64404297 3.99316406 C3.79204819 3.99427689 2.94005341 3.99538971 2.0622406 3.99653625 C-2.17007651 3.91396404 -2.17007651 3.91396404 -6.13330078 5.16113281 C-5.10406388 0.60308368 -4.69204865 0.04128063 0 0 Z " fill="#C39A75" transform="translate(288.13330078125,148.8388671875)"/>
<path d="M0 0 C0.96813629 0.00141495 1.93627258 0.0028299 2.93374634 0.00428772 C6.01055049 0.0098626 9.08728053 0.02241048 12.1640625 0.03515625 C14.25650936 0.0401745 16.34895737 0.04473684 18.44140625 0.04882812 C23.55732 0.0598238 28.67317871 0.0770711 33.7890625 0.09765625 C34.2840625 2.07765625 34.2840625 2.07765625 34.7890625 4.09765625 C33.53359619 4.08718262 32.27812988 4.07670898 30.98461914 4.06591797 C26.29373057 4.02951509 21.60285431 4.00668235 16.91186523 3.98779297 C14.88775528 3.97778142 12.86365961 3.96416815 10.83959961 3.94677734 C7.91776994 3.92231484 4.99613272 3.91112441 2.07421875 3.90234375 C1.18009781 3.89202118 0.28597687 3.88169861 -0.63523865 3.87106323 C-6.29554442 3.87006923 -11.82163876 4.2261128 -17.2109375 6.09765625 C-17.8709375 6.75765625 -18.5309375 7.41765625 -19.2109375 8.09765625 C-18.4609375 3.34765625 -18.4609375 3.34765625 -16.2109375 1.09765625 C-10.87423675 -0.2304938 -5.46178167 -0.03026351 0 0 Z " fill="#C29770" transform="translate(204.2109375,148.90234375)"/>
<path d="M0 0 C0 20.79 0 41.58 0 63 C-0.33 63 -0.66 63 -1 63 C-1 44.19 -1 25.38 -1 6 C-6.445 7.485 -6.445 7.485 -12 9 C-12 7.68 -12 6.36 -12 5 C-10.37750059 4.16180842 -8.75191503 3.3295884 -7.125 2.5 C-6.22007812 2.0359375 -5.31515625 1.571875 -4.3828125 1.09375 C-2 0 -2 0 0 0 Z " fill="#95989A" transform="translate(322,358)"/>
<path d="M0 0 C0.33 0 0.66 0 1 0 C1 8.25 1 16.5 1 25 C0.67 25 0.34 25 0 25 C-0.33 20.38 -0.66 15.76 -1 11 C-1.99 12.815 -2.98 14.63 -4 16.5 C-8.18460594 23.67482031 -13.29776544 30.37541903 -21 34 C-21.66 34 -22.32 34 -23 34 C-23 33.34 -23 32.68 -23 32 C-23.66 31.67 -24.32 31.34 -25 31 C-23.824375 30.46375 -22.64875 29.9275 -21.4375 29.375 C-11.96835171 24.55707068 -5.66378423 17.06891151 -1.89453125 7.06640625 C-1.18598765 4.72122674 -0.54394449 2.38817533 0 0 Z " fill="#B99574" transform="translate(348,165)"/>
<path d="M0 0 C0.76978683 0.02361099 1.53957367 0.04722198 2.33268738 0.07154846 C4.7779878 0.14778316 7.22293886 0.23197875 9.66796875 0.31640625 C11.33136343 0.36966726 12.99477488 0.42240735 14.65820312 0.47460938 C18.72417724 0.60334345 22.78985693 0.73921519 26.85546875 0.87890625 C26.85546875 1.20890625 26.85546875 1.53890625 26.85546875 1.87890625 C25.1226062 1.90078003 25.1226062 1.90078003 23.35473633 1.9230957 C19.05868963 1.98117447 14.76316181 2.05840675 10.4675293 2.14135742 C8.61019325 2.17456174 6.75275738 2.20260766 4.89526367 2.2253418 C2.22141077 2.25897067 -0.45153118 2.31128999 -3.125 2.3671875 C-3.95227097 2.37357742 -4.77954193 2.37996735 -5.63188171 2.3865509 C-10.23514503 2.50330389 -13.45258418 2.82099822 -17.14453125 5.87890625 C-17.47453125 6.86890625 -17.80453125 7.85890625 -18.14453125 8.87890625 C-22.59953125 7.88890625 -22.59953125 7.88890625 -27.14453125 6.87890625 C-26.14453125 4.87890625 -26.14453125 4.87890625 -23.37890625 3.84375 C-22.2290625 3.50472656 -21.07921875 3.16570312 -19.89453125 2.81640625 C-18.755 2.47480469 -17.61546875 2.13320312 -16.44140625 1.78125 C-10.80563135 0.23875711 -5.84073206 -0.21344921 0 0 Z " fill="#958B7E" transform="translate(290.14453125,135.12109375)"/>
<path d="M0 0 C0.33 0 0.66 0 1 0 C1.226875 1.299375 1.45375 2.59875 1.6875 3.9375 C3.97629103 13.97055657 10.01027948 20.70571649 17 28 C16.67 28.99 16.34 29.98 16 31 C10.02501361 25.42532287 4.62854701 19.88564104 2 12 C1.67 17.28 1.34 22.56 1 28 C0.67 28 0.34 28 0 28 C0 18.76 0 9.52 0 0 Z " fill="#B39071" transform="translate(173,164)"/>
<path d="M0 0 C0.33 0.66 0.66 1.32 1 2 C-2.55253381 11.66170283 -8.11438397 19.52187998 -17.1875 24.5625 C-20.42974433 26.02694566 -22.56934233 26.28649662 -26 25 C-23.70257517 23.46838344 -21.7252941 22.37873411 -19.25 21.25 C-9.86212498 16.60783386 -4.34782007 9.32006111 0 0 Z " fill="#C5A17F" transform="translate(247,172)"/>
<path d="M0 0 C-0.33 0.99 -0.66 1.98 -1 3 C-3.31 3.33 -5.62 3.66 -8 4 C-8 19.18 -8 34.36 -8 50 C-8.33 50 -8.66 50 -9 50 C-9 33.83 -9 17.66 -9 1 C-3 0 -3 0 0 0 Z " fill="#DAA97D" transform="translate(363,156)"/>
<path d="M0 0 C0.804375 0.495 1.60875 0.99 2.4375 1.5 C2.4375 2.49 2.4375 3.48 2.4375 4.5 C1.426875 4.17 0.41625 3.84 -0.625 3.5 C-6.68525069 1.78944537 -11.70050677 2.21239289 -17.5625 4.5 C-17.3125 2.625 -17.3125 2.625 -16.5625 0.5 C-11.30342976 -2.80139872 -5.54496409 -2.33472172 0 0 Z " fill="#BE946E" transform="translate(268.5625,151.5)"/>
<path d="M0 0 C0 0.33 0 0.66 0 1 C-3.3 1.33 -6.6 1.66 -10 2 C-10 2.66 -10 3.32 -10 4 C-10.93972656 4.18175781 -10.93972656 4.18175781 -11.8984375 4.3671875 C-12.71570313 4.53476563 -13.53296875 4.70234375 -14.375 4.875 C-15.59316406 5.11863281 -15.59316406 5.11863281 -16.8359375 5.3671875 C-19.18673923 5.86658932 -19.18673923 5.86658932 -21 8 C-20.25 3.25 -20.25 3.25 -18 1 C-12.15235813 -0.53885312 -5.99927406 -0.08736807 0 0 Z " fill="#C6A381" transform="translate(206,149)"/>
<path d="M0 0 C3.68266103 0.59950296 7.34543185 1.24758891 11 2 C11 1.34 11 0.68 11 0 C12.32 0.66 13.64 1.32 15 2 C15 2.66 15 3.32 15 4 C11.04 4.66 7.08 5.32 3 6 C3 5.01 3 4.02 3 3 C2.01 2.67 1.02 2.34 0 2 C0 1.34 0 0.68 0 0 Z " fill="#6E5A47" transform="translate(247,138)"/>
<path d="M0 0 C0 1.65 0 3.3 0 5 C-5.445 6.485 -5.445 6.485 -11 8 C-11 6.68 -11 5.36 -11 4 C-9.73308493 3.32591692 -8.46129251 2.66099503 -7.1875 2 C-6.47980469 1.62875 -5.77210938 1.2575 -5.04296875 0.875 C-3 0 -3 0 0 0 Z " fill="#C2C2C3" transform="translate(321,359)"/>
<path d="M0 0 C4.02511566 1.21689543 7.59257117 2.49453762 11 5 C11 5.99 11 6.98 11 8 C7.0507432 7.44894091 3.65079826 6.61064629 0 5 C0 3.35 0 1.7 0 0 Z " fill="#C9C9C9" transform="translate(201,359)"/>
<path d="M0 0 C4.95 0.99 4.95 0.99 10 2 C10 5.63 10 9.26 10 13 C9.67 13 9.34 13 9 13 C9 10.36 9 7.72 9 5 C7.329375 5.061875 7.329375 5.061875 5.625 5.125 C2 5 2 5 0 3 C0 2.01 0 1.02 0 0 Z " fill="#C39872" transform="translate(158,155)"/>
<path d="M0 0 C-1.485 2.475 -1.485 2.475 -3 5 C-7.455 4.01 -7.455 4.01 -12 3 C-11 1 -11 1 -7.6875 -0.1875 C-4.42437937 -0.90649268 -3.00717118 -1.20286847 0 0 Z " fill="#6A5745" transform="translate(275,139)"/>
<path d="M0 0 C1.71872783 2.57809175 3.03410546 5.03249253 4.375 7.8125 C6.33236718 11.77950826 8.44016146 15.39726427 11 19 C10.01 19 9.02 19 8 19 C3.27884787 13.33461745 0 7.54955374 0 0 Z " fill="#C9A481" transform="translate(273,168)"/>
<path d="M0 0 C-0.33 0.99 -0.66 1.98 -1 3 C-3.31 3.33 -5.62 3.66 -8 4 C-8 6.64 -8 9.28 -8 12 C-8.33 12 -8.66 12 -9 12 C-9 8.37 -9 4.74 -9 1 C-5.94152152 0.45627049 -3.11227195 0 0 0 Z " fill="#C09670" transform="translate(363,156)"/>
<path d="M0 0 C0.33 0.66 0.66 1.32 1 2 C-0.21484375 4.8203125 -0.21484375 4.8203125 -1.9375 8.125 C-2.50339844 9.22070312 -3.06929687 10.31640625 -3.65234375 11.4453125 C-4.09707031 12.28835937 -4.54179687 13.13140625 -5 14 C-5.99 14 -6.98 14 -8 14 C-7.608125 13.360625 -7.21625 12.72125 -6.8125 12.0625 C-4.45939824 8.08656943 -2.23007799 4.04587271 0 0 Z " fill="#CAA583" transform="translate(247,172)"/>
<path d="M0 0 C0.79921875 0.01804688 1.5984375 0.03609375 2.421875 0.0546875 C3.02515625 0.07789063 3.6284375 0.10109375 4.25 0.125 C4.25 0.455 4.25 0.785 4.25 1.125 C1.61 1.455 -1.03 1.785 -3.75 2.125 C-3.75 2.785 -3.75 3.445 -3.75 4.125 C-5.73 4.785 -7.71 5.445 -9.75 6.125 C-9.5 4.25 -9.5 4.25 -8.75 2.125 C-5.77602316 0.21315774 -3.49458497 -0.10278191 0 0 Z " fill="#C4A07E" transform="translate(260.75,149.875)"/>
<path d="M0 0 C1.65 0 3.3 0 5 0 C5 0.99 5 1.98 5 3 C3.68 3 2.36 3 1 3 C1 4.65 1 6.3 1 8 C0.67 8 0.34 8 0 8 C0 5.36 0 2.72 0 0 Z " fill="#413532" transform="translate(349,156)"/>
<path d="M0 0 C2.16874252 0.50603992 3.99967627 0.99983813 6 2 C6 2.99 6 3.98 6 5 C3.69 4.34 1.38 3.68 -1 3 C-0.67 2.01 -0.34 1.02 0 0 Z " fill="#C49C77" transform="translate(265,151)"/>
<path d="M0 0 C0.66 0 1.32 0 2 0 C0.70700306 2.88437779 -0.65941363 4.87219421 -3 7 C-3.66 6.67 -4.32 6.34 -5 6 C-3.38405168 3.95880212 -1.7143618 1.95927063 0 0 Z " fill="#C39A74" transform="translate(238,186)"/>
</svg>
